<svg xmlns="http://www.w3.org/2000/svg" xmlns:xlink="http://www.w3.org/1999/xlink" version="1.1" width="256" height="256" viewBox="0 0 256 256" xml:space="preserve">

<defs>
</defs>
<g style="stroke: none; stroke-width: 0; stroke-dasharray: none; stroke-linecap: butt; stroke-linejoin: miter; stroke-miterlimit: 10; fill: none; fill-rule: nonzero; opacity: 1;" transform="translate(1.4065934065934016 1.4065934065934016) scale(2.81 2.81)" >
	<path d="M 45 90 L 45 90 C 20.147 90 0 69.853 0 45 v 0 C 0 20.147 20.147 0 45 0 h 0 c 24.853 0 45 20.147 45 45 v 0 C 90 69.853 69.853 90 45 90 z" style="stroke: none; stroke-width: 1; stroke-dasharray: none; stroke-linecap: butt; stroke-linejoin: miter; stroke-miterlimit: 10; fill: rgb(0,175,240); fill-rule: nonzero; opacity: 1;" transform=" matrix(1 0 0 1 0 0) " stroke-linecap="round" />
	<path d="M 33.333 23.667 C 20.447 23.667 10 34.113 10 47 s 10.447 23.333 23.333 23.333 S 56.667 59.887 56.667 47 S 46.22 23.667 33.333 23.667 z M 33.333 54 c -3.866 0 -7 -3.134 -7 -7 s 3.134 -7 7 -7 s 7 3.134 7 7 c 0.005 3.861 -3.12 6.995 -6.981 7 C 33.346 54 33.34 54 33.333 54 z" style="stroke: none; stroke-width: 1; stroke-dasharray: none; stroke-linecap: butt; stroke-linejoin: miter; stroke-miterlimit: 10; fill: rgb(204,239,252); fill-rule: nonzero; opacity: 1;" transform=" matrix(1 0 0 1 0 0) " stroke-linecap="round" />
	<path d="M 59.56 41.167 c 5.929 1.706 12.927 0 12.927 0 c -2.031 8.867 -8.471 14.42 -17.758 15.096 c -3.681 8.543 -12.093 14.076 -21.396 14.071 l 7 -22.249 c 7.196 -22.869 10.885 -24.418 27.95 -24.418 H 80 C 78.04 32.3 71.285 38.895 59.56 41.167 z" style="stroke: none; stroke-width: 1; stroke-dasharray: none; stroke-linecap: butt; stroke-linejoin: miter; stroke-miterlimit: 10; fill: rgb(255,255,255); fill-rule: nonzero; opacity: 1;" transform=" matrix(1 0 0 1 0 0) " stroke-linecap="round" />
</g>
</svg>